<svg width="82" height="81" viewBox="0 0 82 81" fill="none" xmlns="http://www.w3.org/2000/svg">
<path fill-rule="evenodd" clip-rule="evenodd" d="M18.5479 34.4107C24.0525 38.2612 35.2082 47.0035 35.7939 51.1686C36.1464 52.199 36.8189 55.1547 36.6887 58.7341L30.3435 80.5357H36.6887H53.8534C52.2264 73.2956 48.9074 58.5226 48.6471 57.3512C48.3217 55.8869 48.3217 51.6567 50.3554 48.4027C51.9824 45.7996 57.2158 40.8102 59.6292 38.6408H55.155C51.2502 44.8885 47.2325 43.9014 45.7117 42.627C44.5076 43.6622 43.8475 44.5793 43.3594 44.9861C42.5318 45.6757 40.1325 43.8201 38.8038 42.627C38.614 42.41 38.4459 41.6833 39.2919 40.5119C39.7411 39.8899 40.4106 38.3283 41.0196 36.5258C41.8442 34.0849 42.5581 31.202 42.4645 29.6111L39.6173 29.2857C38.7728 31.1437 37.0553 34.3967 35.2796 36.5258C34.4896 37.4729 33.688 38.1976 32.9467 38.4781C32.1541 38.778 31.3278 38.7057 30.5062 38.4274C29.2629 38.0063 28.0305 37.1137 26.9429 36.3259C26.0196 35.6571 25.2006 35.0639 24.5677 34.8988L18.5479 34.4107Z" fill="#D7824D"/>
<path d="M50.6808 38.6408C49.3915 39.6194 47.3264 41.2387 45.7117 42.627C47.2325 43.9014 51.2502 44.8885 55.155 38.6408H50.6808Z" fill="#D7824D"/>
<path d="M40.9997 36.4444C39.1775 38.2016 36.6882 36.9867 35.5493 36.2004C36.5255 35.4194 38.8304 30.75 39.6981 29.0416L42.708 30.4246C42.8382 31.596 41.542 34.953 40.9997 36.4444Z" fill="#E19974"/>
<path d="M51.1684 38.2341L45.7993 42.5456C48.3211 45.7182 52.9852 41.9762 54.5037 40.1051L51.1684 38.2341Z" fill="#E19974"/>
<path d="M42.3828 52.5516C41.8621 46.3039 31.1024 38.668 25.7875 35.6309L18.3848 34.3293L30.1804 43.9285C35.9562 49.9484 35.3054 50.8432 36.1189 52.5516C36.9324 54.2599 36.6883 58.4087 36.6883 58.8968C36.6883 59.2873 32.5124 73.4854 30.4244 80.5357H36.6883C38.8034 73.8108 42.9034 58.7992 42.3828 52.5516Z" fill="#E19974"/>
<circle cx="11.2259" cy="20.8254" r="6.83333" fill="#9ECF50"/>
<circle cx="6.83333" cy="29.7738" r="6.83333" fill="#9ECF50"/>
<circle cx="16.4325" cy="29.7738" r="6.83333" fill="#9ECF50"/>
<circle cx="20.4998" cy="20.8254" r="6.83333" fill="#9ECF50"/>
<circle cx="25.3812" cy="29.7738" r="6.83333" fill="#9ECF50"/>
<circle cx="27.8215" cy="22.9405" r="9.7619" fill="#739E52"/>
<circle cx="30.7502" cy="21.3135" r="9.7619" fill="#9ECF50"/>
<circle cx="36.6071" cy="9.76188" r="9.7619" fill="#9ECF50"/>
<circle cx="49.7858" cy="9.76188" r="9.7619" fill="#9ECF50"/>
<circle cx="43.7658" cy="21.3135" r="9.7619" fill="#9ECF50"/>
<circle cx="59.6292" cy="23.8353" r="7.24008" fill="#9ECF50"/>
<circle cx="70.2044" cy="23.8353" r="7.24008" fill="#9ECF50"/>
<circle cx="74.7601" cy="33.9226" r="7.24008" fill="#9ECF50"/>
<circle cx="64.9979" cy="33.9226" r="7.24008" fill="#9ECF50"/>
<circle cx="55.0736" cy="33.9226" r="7.24008" fill="#9ECF50"/>
<circle cx="57.5139" cy="24.3234" r="9.35516" fill="#739E52"/>
<circle cx="56.131" cy="21.9643" r="9.7619" fill="#9ECF50"/>
</svg>
