<svg width="33" height="33" viewBox="0 0 33 33" fill="none" xmlns="http://www.w3.org/2000/svg">
<path d="M16.85 2C12.9115 2 9.13438 3.56455 6.34946 6.34946C3.56455 9.13438 2 12.9115 2 16.85C2 20.7885 3.56455 24.5656 6.34946 27.3505C9.13438 30.1355 12.9115 31.7 16.85 31.7C20.7885 31.7 24.5656 30.1355 27.3505 27.3505C30.1355 24.5656 31.7 20.7885 31.7 16.85C31.7 12.9115 30.1355 9.13438 27.3505 6.34946C24.5656 3.56455 20.7885 2 16.85 2ZM21.668 22.361C21.668 22.9385 21.899 23.4005 22.262 23.45C22.625 23.4995 23.0375 23.087 23.219 22.46L23.549 22.592C24.1238 22.8992 24.5754 23.395 24.8278 23.996C25.0802 24.5969 25.1181 25.2664 24.935 25.892C24.8137 26.4472 24.5143 26.9475 24.0824 27.3169C23.6505 27.6862 23.1098 27.9043 22.5425 27.938C21.734 25.9415 19.061 28.037 16.6685 27.575C16.1711 27.4498 15.7115 27.2057 15.3293 26.8637C14.947 26.5217 14.6535 26.092 14.474 25.6115C16.4375 25.43 19.1765 22.757 21.668 22.361ZM15.2 20.5955C15.9329 20.5943 16.6406 20.3281 17.1926 19.8459C17.7445 19.3637 18.1034 18.6981 18.203 17.972C18.5529 18.4039 18.734 18.9481 18.7128 19.5035C18.6916 20.0589 18.4694 20.5876 18.0875 20.9915C17.8796 21.1735 17.6351 21.3088 17.3705 21.3882C17.1058 21.4675 16.8272 21.4892 16.5535 21.4517C16.2798 21.4141 16.0173 21.3183 15.7838 21.1706C15.5503 21.0229 15.3512 20.8268 15.2 20.5955ZM20.15 19.3415C20.8265 19.985 25.1 19.2425 25.958 21.14C24.3905 20.81 21.0905 22.1465 20.2325 19.358L20.15 19.3415ZM18.0545 10.9925V11.438C16.982 10.1675 15.86 9.6725 15.398 10.4975C14.936 11.3225 17.048 12.329 16.652 13.5995C16.256 14.87 14.5565 14.5235 13.55 16.256C12.5435 17.9885 12.7415 20.249 15.596 22.3115C14.6334 22.2048 13.7233 21.8181 12.9784 21.1992C12.2335 20.5804 11.6864 19.7567 11.405 18.83C10.745 16.85 11.2565 15.101 10.118 14.771C8.6 14.309 6.95 16.3715 6.95 18.17C4.871 16.091 7.0325 13.451 4.97 11.273C6.32599 8.38571 8.69484 6.09674 11.6269 4.84056C14.559 3.58439 17.8503 3.44843 20.876 4.4585C19.9772 5.29151 19.262 6.30287 18.7762 7.42794C18.2903 8.55301 18.0445 9.76706 18.0545 10.9925Z" fill="#8892EE"/>
</svg>
