<svg width="30" height="30" viewBox="0 0 30 30" fill="none" xmlns="http://www.w3.org/2000/svg">
<path d="M22 15.9333C22 17.5528 21.4385 19.1222 20.4111 20.3741C19.3837 21.626 17.954 22.4829 16.3656 22.7988C14.7773 23.1148 13.1285 22.8702 11.7002 22.1068C10.272 21.3434 9.1526 20.1083 8.53285 18.6121C7.91309 17.1159 7.83131 15.4511 8.30142 13.9013C8.77153 12.3516 9.76446 11.0128 11.111 10.113C12.4576 9.21331 14.0744 8.8083 15.6861 8.96704C17.2978 9.12578 18.8046 9.83844 19.9497 10.9836M19.9497 10.9836L18 7M19.9497 10.9836L16 11.5" stroke="#6A75DF" stroke-width="1.5" stroke-linecap="round"/>
<circle cx="15" cy="15" r="14" stroke="#6A75DF" stroke-width="2"/>
</svg>
