<svg width="36" height="36" viewBox="0 0 36 36" fill="none" xmlns="http://www.w3.org/2000/svg">
<path d="M19 3C10.72 3 4 9.72 4 18C4 26.28 10.72 33 19 33C27.28 33 34 26.28 34 18C34 9.72 27.28 3 19 3ZM25.96 13.2C25.735 15.57 24.76 21.33 24.265 23.985C24.055 25.11 23.635 25.485 23.245 25.53C22.375 25.605 21.715 24.96 20.875 24.405C19.555 23.535 18.805 22.995 17.53 22.155C16.045 21.18 17.005 20.64 17.86 19.77C18.085 19.545 21.925 16.05 22 15.735C22.0104 15.6873 22.009 15.6378 21.996 15.5907C21.9829 15.5437 21.9585 15.5005 21.925 15.465C21.835 15.39 21.715 15.42 21.61 15.435C21.475 15.465 19.375 16.86 15.28 19.62C14.68 20.025 14.14 20.235 13.66 20.22C13.12 20.205 12.1 19.92 11.335 19.665C10.39 19.365 9.655 19.2 9.715 18.675C9.745 18.405 10.12 18.135 10.825 17.85C15.205 15.945 18.115 14.685 19.57 14.085C23.74 12.345 24.595 12.045 25.165 12.045C25.285 12.045 25.57 12.075 25.75 12.225C25.9 12.345 25.945 12.51 25.96 12.63C25.945 12.72 25.975 12.99 25.96 13.2Z" fill="#8892EE"/>
</svg>
