<svg width="63" height="63" viewBox="0 0 63 63" fill="none" xmlns="http://www.w3.org/2000/svg">
<path fill-rule="evenodd" clip-rule="evenodd" d="M31.5 0.25C14.2406 0.25 0.25 14.2406 0.25 31.5C0.25 48.7594 14.2406 62.75 31.5 62.75C48.7594 62.75 62.75 48.7594 62.75 31.5C62.75 14.2406 48.7594 0.25 31.5 0.25ZM20.5625 23.6875C20.5625 22.2512 20.8454 20.8289 21.3951 19.5019C21.9447 18.1749 22.7504 16.9692 23.766 15.9535C24.7817 14.9379 25.9874 14.1322 27.3144 13.5826C28.6414 13.0329 30.0637 12.75 31.5 12.75C32.9363 12.75 34.3586 13.0329 35.6856 13.5826C37.0126 14.1322 38.2183 14.9379 39.234 15.9535C40.2496 16.9692 41.0553 18.1749 41.6049 19.5019C42.1546 20.8289 42.4375 22.2512 42.4375 23.6875C42.4375 26.5883 41.2852 29.3703 39.234 31.4215C37.1828 33.4727 34.4008 34.625 31.5 34.625C28.5992 34.625 25.8172 33.4727 23.766 31.4215C21.7148 29.3703 20.5625 26.5883 20.5625 23.6875ZM51.0562 47.075C48.717 50.0176 45.7431 52.3936 42.3568 54.0256C38.9704 55.6577 35.2591 56.5035 31.5 56.5C27.7409 56.5035 24.0296 55.6577 20.6432 54.0256C17.2569 52.3936 14.283 50.0176 11.9438 47.075C17.0094 43.4406 23.9219 40.875 31.5 40.875C39.0781 40.875 45.9906 43.4406 51.0562 47.075Z" fill="#6A75DF"/>
</svg>
