<svg width="254" height="286" viewBox="0 0 254 286" fill="none" xmlns="http://www.w3.org/2000/svg">
<rect x="45.1162" y="82.5613" width="203.02" height="203.02" rx="23.46" fill="#6A75DF"/>
<rect x="0.279636" y="44.2876" width="157.453" height="95.1936" transform="rotate(-16.2303 0.279636 44.2876)" fill="white" stroke="black" stroke-width="0.451155"/>
<path d="M41.9217 84.6139L39.7629 77.198L44.9883 54.5604L54.4899 51.7944L49.2646 74.432L56.6805 72.2732L54.5892 65.089L55.0527 64.9541L63.1639 62.5929L65.2552 69.7771L69.4267 68.5628L71.5855 75.9788L67.414 77.1931L69.0331 82.755L60.4584 85.2511L58.8393 79.6892L41.9217 84.6139ZM78.7608 75.7503C74.7753 73.4581 72.0449 69.7782 70.5698 64.7107C69.0946 59.6431 69.4233 55.0727 71.5559 50.9996C73.7194 46.9174 77.1341 44.1972 81.7999 42.8389C86.4658 41.4807 90.7915 41.9477 94.7771 44.2399C98.7935 46.523 101.539 50.1984 103.015 55.266C104.49 60.3335 104.146 64.9084 101.982 68.9906C99.8494 73.0638 96.4502 75.7795 91.7843 77.1377C87.1185 78.4959 82.7773 78.0335 78.7608 75.7503ZM79.5443 54.6069C78.7052 56.5605 78.7264 59.0515 79.6079 62.0796C80.4894 65.1078 81.8085 67.221 83.565 68.4191C85.3215 69.6172 87.2967 69.8969 89.4906 69.2582C91.6845 68.6196 93.201 67.3235 94.04 65.3698C94.8791 63.4161 94.8578 60.9252 93.9763 57.897C93.0948 54.8688 91.7758 52.7557 90.0193 51.5576C88.2627 50.3595 86.2875 50.0797 84.0937 50.7184C81.8998 51.357 80.3833 52.6532 79.5443 54.6069ZM108.911 65.1132L106.753 57.6972L111.978 35.0596L121.48 32.2937L116.254 54.9313L123.67 52.7725L121.579 45.5883L122.042 45.4534L130.154 43.0922L132.245 50.2764L136.416 49.0621L138.575 56.478L134.404 57.6923L136.023 63.2543L127.448 65.7504L125.829 60.1884L108.911 65.1132Z" fill="black"/>
<path d="M66.7359 106.418L62.9404 93.3799L72.0674 90.7231L72.5283 92.3063L65.0777 94.4752L66.2706 98.573L72.3242 96.8108L72.7851 98.3941L66.7315 100.156L67.9514 104.347L75.402 102.178L75.8629 103.762L66.7359 106.418ZM78.1047 103.109L74.3091 90.0705L79.8971 88.4439C81.3499 88.0209 82.6168 88.0697 83.6978 88.5902C84.7787 89.1106 85.4927 89.9669 85.8397 91.159C86.1253 92.14 86.065 93.0668 85.659 93.9393C85.2654 94.8082 84.5565 95.5197 83.5325 96.0737L88.3492 100.127L86.3934 100.696L81.8172 96.7751L78.3713 97.7782L79.781 102.621L78.1047 103.109ZM77.9104 96.1949L81.822 95.0563C82.8278 94.7635 83.5264 94.3176 83.9178 93.7188C84.3056 93.1075 84.3874 92.4169 84.1633 91.647C83.9392 90.8771 83.5013 90.3446 82.8496 90.0494C82.1944 89.7417 81.3638 89.7343 80.358 90.0271L76.4464 91.1658L77.9104 96.1949ZM90.8558 99.3972L87.0603 86.3586L92.6482 84.732C94.1011 84.3091 95.368 84.3578 96.4489 84.8783C97.5299 85.3988 98.2438 86.2551 98.5909 87.4472C98.8764 88.4282 98.8162 89.3549 98.4102 90.2274C98.0165 91.0963 97.3077 91.8078 96.2836 92.3618L101.1 96.415L99.1446 96.9843L94.5683 93.0632L91.1224 94.0663L92.5322 98.9092L90.8558 99.3972ZM90.6615 92.4831L94.5731 91.3444C95.5789 91.0516 96.2776 90.6058 96.669 90.0069C97.0568 89.3956 97.1386 88.7051 96.9145 87.9352C96.6904 87.1653 96.2525 86.6327 95.6008 86.3375C94.9455 86.0299 94.1149 86.0224 93.1091 86.3152L89.1975 87.4539L90.6615 92.4831ZM104.418 93.752C102.76 92.8205 101.639 91.3551 101.057 89.3558C100.475 87.3566 100.636 85.5251 101.539 83.8613C102.451 82.1815 103.888 81.0561 105.85 80.4849C107.812 79.9138 109.622 80.094 111.281 81.0255C112.948 81.941 114.073 83.3984 114.655 85.3976C115.237 87.3969 115.072 89.2364 114.16 90.9162C113.257 92.58 111.824 93.6974 109.862 94.2685C107.9 94.8397 106.085 94.6675 104.418 93.752ZM103.051 84.6133C102.38 85.8726 102.275 87.2908 102.734 88.8678C103.193 90.4449 104.043 91.5847 105.285 92.2874C106.527 92.99 107.899 93.1227 109.401 92.6853C110.904 92.2479 111.99 91.3995 112.661 90.1402C113.332 88.8809 113.437 87.4627 112.978 85.8856C112.519 84.3086 111.669 83.1687 110.427 82.4661C109.185 81.7634 107.813 81.6308 106.311 82.0682C104.808 82.5056 103.722 83.3539 103.051 84.6133ZM118.886 91.2375L115.091 78.1989L120.679 76.5722C122.132 76.1493 123.399 76.1981 124.48 76.7186C125.561 77.239 126.275 78.0953 126.622 79.2874C126.907 80.2684 126.847 81.1952 126.441 82.0677C126.047 82.9366 125.338 83.6481 124.314 84.2021L129.131 88.2553L127.175 88.8246L122.599 84.9035L119.153 85.9066L120.563 90.7495L118.886 91.2375ZM118.692 84.3233L122.604 83.1847C123.61 82.8919 124.308 82.446 124.7 81.8472C125.087 81.2359 125.169 80.5453 124.945 79.7754C124.721 79.0055 124.283 78.473 123.631 78.1778C122.976 77.8701 122.146 77.8627 121.14 78.1555L117.228 79.2942L118.692 84.3233Z" fill="black"/>
<path d="M102.527 138.126C102.527 138.126 125.796 154.426 161.171 123.949C192.587 96.8823 218.24 139.587 218.419 160.038C218.651 186.529 187.003 207.726 202.362 225.126C217.721 242.526 171.902 271.259 147.209 246.393C116.49 215.459 108.168 240.593 90.6588 240.593C78.0922 240.593 52.2916 211.769 69.7144 190.326C84.3755 172.282 76.3796 166.293 72.5075 160.038C66.9219 151.015 80.1866 126.527 102.527 138.126Z" fill="#E3EBF7"/>
<path d="M195.946 174.146C197.197 174.575 198.563 174.604 199.864 174.328C205.312 173.174 224.046 170.117 220.791 183.518C220.082 186.176 209.11 201.067 224.735 206.502C225.881 206.905 227.092 207.126 228.317 207.153C233.128 207.244 242.662 206.196 246.651 202.447C251.472 197.918 246.206 200.065 246.206 200.065C246.206 200.065 227.881 207.447 221.408 199.615C220.688 198.744 220.23 197.478 220.099 196.389C219.871 194.5 220.779 192.004 221.973 189.831C223.588 186.89 231.344 173.66 214.504 169.806C210.625 168.953 204.991 168.188 197.727 171.011C193.489 172.657 194.428 173.625 195.946 174.146Z" fill="#BDD6F9"/>
<path d="M199.695 169.207L194.818 170.893C193.134 171.474 192.28 173.206 192.911 174.759L193.152 175.356C193.782 176.91 195.658 177.698 197.341 177.117L202.219 175.432C203.903 174.85 204.757 173.119 204.127 171.564L203.885 170.968C203.255 169.414 201.379 168.626 199.695 169.207Z" fill="#0E84E5"/>
<path d="M169.756 174.083L153.671 179.641C152.829 179.931 152.402 180.797 152.717 181.574L152.781 181.73C153.095 182.507 154.033 182.901 154.876 182.611L170.96 177.054C171.803 176.763 172.23 175.897 171.914 175.12L171.851 174.963C171.536 174.186 170.598 173.792 169.756 174.083Z" fill="white"/>
<path d="M174.245 185.156L158.16 190.712C157.318 191.003 156.891 191.869 157.206 192.646L157.269 192.803C157.585 193.579 158.522 193.974 159.364 193.682L175.45 188.126C176.291 187.835 176.718 186.969 176.404 186.192L176.34 186.036C176.025 185.259 175.087 184.864 174.245 185.156Z" fill="white"/>
<path d="M189.095 166.527L176.059 171.031C174.375 171.612 173.521 173.344 174.151 174.898L178.602 185.876C179.233 187.43 181.108 188.218 182.791 187.637L195.829 183.133C197.512 182.552 198.366 180.82 197.736 179.266L193.285 168.288C192.655 166.734 190.78 165.946 189.095 166.527Z" fill="#5895F9"/>
<path d="M177.407 169.407L164.37 173.911C162.686 174.493 161.832 176.224 162.462 177.778L167.773 190.875C168.403 192.429 170.278 193.217 171.962 192.636L184.999 188.132C186.682 187.551 187.536 185.82 186.906 184.265L181.596 171.168C180.966 169.613 179.09 168.825 177.407 169.407Z" fill="#699CFF"/>
<path d="M179.448 166.749L179.346 166.784C178.223 167.172 177.654 168.327 178.074 169.362L185.513 187.71C185.933 188.746 187.183 189.272 188.306 188.884L188.408 188.849C189.531 188.461 190.1 187.307 189.68 186.271L182.241 167.923C181.821 166.887 180.57 166.361 179.448 166.749Z" fill="#208AF2"/>
<path d="M46.5135 178.479C46.5135 178.479 72.696 171.687 68.8948 187.336C68.2346 189.812 58.7321 202.561 70.0511 208.682C72.4815 209.996 75.2863 210.578 78.103 210.565C83.153 210.54 91.1589 209.643 94.7554 206.264C99.5755 201.735 94.3097 203.883 94.3097 203.883C94.3097 203.883 79.2726 209.592 71.5366 205.041C68.8951 203.487 67.6978 200.478 68.4151 197.663C68.7817 196.265 69.34 194.916 70.0765 193.648C71.7589 190.739 79.4481 177.477 62.6085 173.623C58.7293 172.771 53.095 172.005 45.8302 174.828C38.5654 177.652 46.5135 178.479 46.5135 178.479Z" fill="#BDD6F9"/>
<path d="M98.2756 200.381L93.3982 202.066C91.7145 202.648 90.8604 204.379 91.4906 205.934L91.7324 206.53C92.3625 208.084 94.2382 208.873 95.9219 208.29L100.799 206.606C102.483 206.024 103.337 204.293 102.707 202.738L102.465 202.142C101.835 200.588 99.9592 199.799 98.2756 200.381Z" fill="#0E84E5"/>
<path d="M106.516 192.974L99.2879 195.471C97.6042 196.053 96.7501 197.784 97.3803 199.338L100.866 207.935C101.496 209.489 103.372 210.278 105.055 209.696L112.284 207.199C113.968 206.617 114.821 204.886 114.192 203.331L110.706 194.735C110.076 193.18 108.2 192.392 106.516 192.974Z" fill="#5895F9"/>
<path d="M118.55 186.355L107.77 190.079C106.087 190.661 105.233 192.392 105.863 193.946L111.173 207.043C111.803 208.598 113.679 209.386 115.362 208.805L126.142 205.08C127.826 204.499 128.68 202.767 128.05 201.213L122.74 188.116C122.109 186.561 120.234 185.773 118.55 186.355Z" fill="#699CFF"/>
<path d="M120.834 183.642L120.731 183.678C119.608 184.065 119.04 185.22 119.46 186.256L126.898 204.604C127.318 205.64 128.569 206.166 129.691 205.778L129.794 205.742C130.916 205.354 131.486 204.2 131.066 203.164L123.626 184.816C123.206 183.781 121.956 183.255 120.834 183.642Z" fill="#208AF2"/>
<path d="M148.36 171.954C147.972 171.914 147.616 171.737 147.366 171.459C147.117 171.182 146.994 170.826 147.023 170.466L147.827 156.905C147.875 156.095 148.616 155.48 149.457 155.551L150.629 155.651C151.47 155.723 152.072 156.453 151.954 157.257L149.978 170.718C149.933 171.077 149.739 171.405 149.438 171.635C149.136 171.866 148.75 171.979 148.36 171.954Z" fill="#418DF9"/>
<path d="M141.415 173.122C141.294 173.155 141.168 173.166 141.042 173.154C140.918 173.141 140.796 173.106 140.686 173.05C140.575 172.995 140.478 172.92 140.399 172.829C140.32 172.739 140.261 172.635 140.225 172.524L137.353 164.088C137.27 163.848 137.293 163.587 137.417 163.363C137.542 163.138 137.757 162.969 138.017 162.892L138.761 162.684C138.889 162.65 139.023 162.64 139.154 162.656C139.286 162.672 139.412 162.713 139.526 162.776C139.64 162.839 139.739 162.924 139.815 163.024C139.892 163.124 139.946 163.238 139.972 163.358L142.101 172.001C142.161 172.233 142.123 172.478 141.996 172.686C141.868 172.894 141.662 173.05 141.415 173.122Z" fill="#418DF9"/>
<path d="M137.539 177.987C137.024 178.576 135.989 178.569 135.192 177.972L121.047 167.363C120.202 166.729 119.953 165.68 120.499 165.056L121.26 164.186C121.806 163.562 122.927 163.613 123.727 164.299L137.111 175.778C137.865 176.424 138.054 177.399 137.539 177.987Z" fill="#418DF9"/>
<path d="M144.078 205.389C144.443 205.519 144.738 205.774 144.902 206.101C145.067 206.428 145.087 206.801 144.96 207.142L140.43 220.064C140.16 220.836 139.273 221.255 138.48 220.988L137.374 220.615C136.581 220.348 136.2 219.5 136.537 218.751L142.172 206.202C142.315 205.866 142.593 205.594 142.948 205.442C143.303 205.291 143.708 205.271 144.078 205.389Z" fill="#418DF9"/>
<path d="M151.117 205.896C151.242 205.892 151.368 205.912 151.486 205.954C151.603 205.995 151.71 206.058 151.802 206.138C151.893 206.217 151.967 206.313 152.018 206.419C152.069 206.525 152.098 206.639 152.101 206.756L152.544 215.589C152.558 215.841 152.464 216.087 152.281 216.274C152.099 216.462 151.844 216.575 151.572 216.589L150.795 216.614C150.662 216.617 150.53 216.595 150.407 216.548C150.283 216.502 150.173 216.432 150.08 216.344C149.987 216.256 149.915 216.152 149.869 216.037C149.823 215.921 149.803 215.799 149.81 215.677L150.143 206.819C150.15 206.58 150.255 206.352 150.435 206.181C150.615 206.01 150.859 205.909 151.117 205.896Z" fill="#418DF9"/>
<path d="M156.21 202.106C156.87 201.658 157.869 201.909 158.474 202.674L169.215 216.266C169.856 217.078 169.807 218.15 169.107 218.625L168.13 219.287C167.43 219.762 166.359 219.448 165.776 218.596L156.011 204.343C155.462 203.541 155.549 202.553 156.21 202.106Z" fill="#418DF9"/>
</svg>
