<svg width="92" height="92" viewBox="0 0 92 92" fill="none" xmlns="http://www.w3.org/2000/svg">
<path d="M44.1447 2.19043C45.4798 2.19474 46.8627 2.53083 47.9244 3.33013C49.1546 4.26084 49.8928 5.81635 49.6445 7.30722C49.2116 9.20959 47.9699 10.903 47.8788 12.8808C47.7398 15.2808 49.4052 17.3965 49.2731 19.7943C49.0544 21.1366 48.4529 22.3883 48.0109 23.6723C46.4843 23.5792 44.9526 23.5871 43.4271 23.696C42.0852 23.8792 40.7615 24.1592 39.4583 24.4975C39.2351 23.9029 38.989 23.3061 38.9161 22.6727C38.7452 21.505 39.3399 20.3739 39.169 19.204C39.0779 18.4586 38.907 17.6744 38.4058 17.0668C37.6995 16.302 36.6538 15.9465 35.6627 15.6384C35.2321 15.479 34.6717 15.3174 34.5418 14.8391C34.5077 14.2359 34.7605 13.6133 34.5418 13.0208C34.2684 12.2689 33.5736 11.7583 32.8833 11.3597C32.1474 10.9504 31.4252 10.5195 30.6665 10.1489C31.9583 9.8473 33.2774 10.2847 34.4211 10.8383C35.1911 11.2046 35.9589 11.7518 36.2209 12.5662C36.4374 13.122 36.2642 13.7081 36.2209 14.2768C37.0229 14.4341 37.7884 14.7056 38.5675 14.9382C38.8637 13.6973 39.1553 12.4542 39.529 11.2326C39.5623 11.1088 39.6336 10.9971 39.734 10.9116C40.0666 11.9673 40.397 13.0402 40.4129 14.1519C40.4198 14.8844 40.4061 15.632 40.6202 16.3451C40.946 17.711 41.7412 18.9089 42.3927 20.1477C42.3645 19.6052 42.3798 19.0614 42.4383 18.5211C42.5477 17.599 42.8643 16.6941 42.7709 15.7548C42.6798 14.5871 42.5249 13.4129 42.6525 12.243C42.8097 11.1701 43.4498 10.2394 44.0923 9.37333C44.6049 8.67744 45.3727 8.19054 45.842 7.46234C46.5164 6.45622 46.5506 5.1377 46.0699 4.05402C45.6985 3.23102 44.9512 2.62347 44.1447 2.19043ZM55.2216 9.18374C56.2195 9.34101 57.1923 9.75035 57.8895 10.4613C58.6573 11.224 59.2337 12.271 59.0651 13.3504C59.0172 13.9386 58.4727 14.307 58.1766 14.7788C58.0376 15.0955 58.3224 15.3885 58.4978 15.6363C59.0765 16.3106 59.5731 17.0431 60.0698 17.7735C61.2317 16.9117 62.2934 15.9293 63.5236 15.158C63.1595 16.1463 62.642 17.0778 61.9881 17.9221C60.8945 19.1071 59.3772 19.9344 58.5251 21.3218C57.5614 22.8558 57.4133 24.7043 56.5704 26.2857C55.5907 25.7751 54.586 25.3032 53.5403 24.9219C54.2534 22.7955 55.4677 20.7875 57.2083 19.2687C57.5956 18.8981 58.131 18.5275 58.1014 17.948C58.1697 17.0647 57.5705 16.3192 56.9736 15.7052C56.6433 15.3454 56.2173 14.9081 56.3972 14.391C56.6843 13.7016 57.3177 13.0983 57.2265 12.3055C57.067 11.0387 56.0532 10.108 55.2216 9.18374Z" fill="#F9EEEE"/>
<path d="M51.9018 14.0045C52.1179 12.8452 52.7244 11.7846 53.54 10.9521C53.2844 11.7211 53.0706 12.5207 53.0752 13.339C53.0404 15.3567 53.8025 17.252 54.3625 19.1521C54.6809 20.0575 54.1627 20.9393 53.7398 21.7059C53.076 22.868 52.5369 24.0986 52.1319 25.3768C51.0816 25.0899 50.0336 24.7701 48.9532 24.6195C49.4551 23.0746 50.4635 21.7671 51.1374 20.2997C51.5974 19.3073 51.939 18.2256 51.9204 17.118C51.9553 16.081 51.7345 15.0392 51.9018 14.0045ZM15.614 15.6859C16.655 14.068 18.414 12.8922 20.3379 12.7746C21.7553 12.7182 23.3214 13.3131 24.0441 14.6159C24.7644 15.8952 25.178 17.3202 25.738 18.6747C26.047 19.4273 26.5512 20.0998 27.1902 20.603C28.5379 21.6965 30.3271 22.0822 31.6097 23.2815C32.2139 23.8388 32.4439 24.6525 32.7344 25.3956C33.0411 26.2492 33.45 27.0558 33.7986 27.8883C32.4615 28.7411 31.2291 29.7515 30.1273 30.8983C29.3561 30.452 28.6084 29.9654 27.8873 29.4403C26.9486 28.7348 26.3166 27.7025 25.8193 26.649C25.5103 26.0046 25.3685 25.2545 24.855 24.7277C24.223 24.0669 23.4794 23.5237 22.873 22.8394C22.0295 21.9317 21.5508 20.7183 21.4021 19.4907C21.3208 18.188 21.0025 16.8264 20.1288 15.8246C19.4921 15.0745 18.4279 14.8393 17.4985 15.0157C16.8314 15.1052 16.1898 15.3334 15.614 15.6859ZM66.6986 15.3637C67.4398 14.1127 68.7596 13.2661 70.17 13.0309C71.5479 12.7652 72.9886 13.1862 74.1411 13.9645C74.6988 14.3337 75.1588 14.8558 75.4191 15.4813C74.4432 15.2979 73.4208 15.1333 72.4449 15.4155C71.2621 15.7447 70.3118 16.7253 69.9191 17.8917C69.6449 18.623 69.6356 19.4178 69.4265 20.1657C69.222 20.8782 68.5993 21.332 68.2414 21.9529C67.3027 23.4391 67.3678 25.2803 66.7869 26.9029C66.5499 27.6554 66.1572 28.3844 65.5368 28.883C64.3401 29.8565 62.9645 30.5761 61.589 31.251C60.4783 30.1599 59.2886 29.151 58.0176 28.2574C58.2592 26.7759 58.6891 25.2945 59.5163 24.0317C60.0809 23.1663 60.7664 22.3479 61.668 21.8282C62.1001 21.5766 62.5974 21.4872 63.0691 21.3461C63.5338 21.2121 63.88 20.8406 64.203 20.4996C64.7189 19.914 65.2022 19.2932 65.5577 18.5948C66.0898 17.5742 66.1153 16.3608 66.6986 15.3637ZM29.7137 14.3572C30.1017 15.0439 30.5037 15.7376 31.0474 16.3091C31.9978 17.3485 33.213 18.068 34.3446 18.877C34.893 19.272 35.4739 19.653 35.8712 20.2174C36.5823 21.1933 36.8704 22.395 37.3374 23.4955C37.6163 24.2245 38.0206 24.89 38.3041 25.6143C37.3142 25.9639 36.3576 26.3872 35.4344 26.8841C35.2741 26.9547 35.0928 27.0934 34.9162 26.9899C34.1518 25.4661 33.931 23.7448 33.3594 22.1457C33.0007 21.0185 32.4399 19.9678 31.705 19.0463C31.2821 18.5101 30.7639 18.0539 30.4177 17.459C29.874 16.5278 29.6742 15.4296 29.7137 14.3572ZM18.5859 24.4009C20.0963 24.7301 21.5973 25.3086 22.8079 26.3033C23.8326 27.2392 24.5181 28.4903 25.5335 29.4426C26.5838 30.5173 27.9686 31.1428 29.149 32.0411C28.4008 32.9771 27.7386 33.9741 27.0555 34.9571C26.0912 34.4327 25.092 33.9624 24.223 33.2804C23.1936 32.5162 22.3037 31.5332 21.1094 31.0206C20.2689 30.6556 19.3276 30.6047 18.4535 30.8771C17.926 31.0394 17.366 31.2863 16.8107 31.1076C16.1694 30.7548 15.8812 30.0258 15.542 29.4097C15.0494 28.375 14.1803 27.6061 13.5204 26.6889C14.343 27.0323 15.1702 27.3897 15.9138 27.8883C16.4598 28.248 16.7735 28.883 17.3544 29.1981C17.9307 29.4285 18.5232 29.0758 19.1041 29.0288C20.4239 28.8877 21.66 29.4944 22.794 30.1011C22.2293 28.5114 21.1349 27.2086 19.9847 26.0211C19.513 25.4849 18.9949 24.9887 18.5859 24.4009ZM72.3612 25.2615C74.1039 24.7771 76.1347 24.7959 77.6242 25.9529C76.6808 26.014 75.7188 25.8635 74.7917 26.101C74.1086 26.2657 73.4138 26.5431 72.9421 27.0934C72.4541 27.6108 72.3287 28.3515 72.3124 29.0405C72.2701 30.2561 72.0645 31.4602 71.7013 32.6196C71.3202 33.8072 70.9577 35.0065 70.4814 36.1588C70.2421 36.7443 69.9098 37.3157 69.38 37.6755C68.4506 38.3363 67.4049 38.8184 66.35 39.2346C66.0177 38.247 65.5321 37.3299 65.1813 36.3563C65.986 36.0532 66.7234 35.5919 67.3511 34.999C67.9788 34.4062 68.4844 33.6934 68.8386 32.9018C68.3553 33.224 67.9556 33.6543 67.4793 33.9883C66.6588 34.6003 65.7077 35.0087 64.7026 35.1805C64.5213 35.244 64.4493 35.0347 64.3703 34.9218C63.7408 33.8701 63.0306 32.87 62.2465 31.9306C64.2379 30.8042 66.4616 30.0846 68.2693 28.6384C69.1407 27.9776 69.8726 27.1522 70.5372 26.2845C70.9717 25.6919 71.6781 25.4332 72.3612 25.2615ZM38.0252 29.1699C37.8347 28.1022 38.9733 27.1357 39.9817 27.4767C41.0273 27.7401 41.4618 29.1934 40.7346 29.9976C40.1722 30.7172 39.0848 30.6913 38.4295 30.1199C36.3243 32.6361 35.1672 35.9283 35.1137 39.2182C35.0859 41.1653 35.5901 43.1477 36.6892 44.7562C37.6232 46.113 39.0058 47.2018 40.6114 47.5828C41.9545 47.9096 43.4671 47.7003 44.5755 46.8256C45.0332 46.4516 45.5003 46.0025 45.635 45.3981C44.9333 45.4358 44.2293 45.6874 43.5299 45.4898C42.7472 45.3324 42.0124 44.99 41.3854 44.4906C40.7583 43.9912 40.2566 43.349 39.9213 42.6162C39.3009 41.3228 39.3032 39.8272 39.5402 38.4375C40.0654 35.893 41.6919 33.6873 43.7181 32.147C45.9185 30.5103 48.5907 29.4685 51.3325 29.3956C51.853 29.3627 52.3224 29.6308 52.7941 29.8189C55.3579 30.9207 57.5938 32.6794 59.2816 34.9218C59.8672 35.679 60.3644 36.4974 60.8431 37.3205C61.3659 37.0147 62.0421 36.8972 62.5765 37.2428C63.42 37.7014 63.6035 38.9924 62.9204 39.672C62.3069 40.3775 61.0894 40.3023 60.5573 39.5356C60.1088 38.9713 60.2018 38.1623 60.5689 37.5838C58.6821 36.107 56.3399 35.3334 54.007 34.9853C51.4394 34.7125 48.7278 35.0935 46.4832 36.4504C44.9496 37.3745 43.6577 38.8937 43.3881 40.7255C43.1139 42.5245 44.127 44.3423 45.6141 45.2829C45.5584 44.7279 45.398 44.1824 45.4329 43.6227C45.5026 42.3293 46.2415 41.1277 47.2778 40.394C48.2421 39.7073 49.4179 39.3851 50.582 39.2981C53.1078 39.1725 55.5938 39.9714 57.5854 41.5486C59.7068 43.2558 61.41 45.5745 62.1489 48.2365C62.3186 48.942 62.53 49.678 62.3604 50.4047C61.6029 54.0496 59.4233 57.3089 56.5421 59.5923C55.7146 60.2425 54.84 60.829 53.9257 61.3466C54.0372 61.9415 54.0047 62.6305 53.533 63.0703C52.8801 63.7805 51.6067 63.6323 51.1281 62.7928C50.582 61.9744 51.0328 60.7352 51.9646 60.4647C52.6082 60.2343 53.282 60.5447 53.7259 61.0221C55.1247 59.3689 55.9751 57.2995 56.4375 55.1901C56.8366 53.2518 56.8065 51.2481 56.3492 49.3229C55.7567 47.0772 54.4044 44.9513 52.3689 43.8061C51.1141 43.0771 49.5573 42.8749 48.184 43.3523C47.1603 43.6854 46.2919 44.3853 45.7419 45.3205C46.5691 45.1935 47.4242 45.0336 48.2514 45.2453C48.9967 45.4543 49.6883 45.8245 50.2784 46.3304C50.8685 46.8363 51.3431 47.4658 51.6695 48.1754C52.3851 49.678 52.3782 51.4252 52.0366 53.0267C51.5208 55.4159 50.0917 57.5441 48.2143 59.0608C46.5929 60.324 44.7206 61.2168 42.7259 61.6781C40.9111 62.1034 39.0109 61.9523 37.284 61.2455C33.8288 59.4089 31.1799 56.2248 29.644 52.6175C28.926 52.7821 28.0872 52.514 27.7618 51.8038C27.2646 50.9032 27.9059 49.6522 28.9167 49.5463C29.8368 49.37 30.7547 50.2118 30.6873 51.1572C30.6942 51.7004 30.3155 52.119 29.9809 52.4952C32.0907 54.3106 34.7211 55.4794 37.4443 55.9285C40.0235 56.3142 42.8281 55.9709 45.0077 54.4259C46.5482 53.3606 47.7054 51.6698 47.9331 49.7697C48.184 48.0719 47.3522 46.16 45.7582 45.4499C46.0138 46.6656 45.9836 48.0084 45.3237 49.0948C44.4314 50.6516 42.5934 51.3124 40.9204 51.5311C39.086 51.8087 37.2127 51.449 35.6063 50.5105C33.1038 49.0643 31.2449 46.6304 30.19 43.9402C29.7601 42.7973 29.4767 41.5768 29.5069 40.3469C29.5115 39.585 29.8415 38.8819 30.111 38.1858C31.6214 34.5809 34.5491 31.6955 37.9857 29.9694C38.3621 29.8495 38.0183 29.4309 38.0252 29.1699ZM10.9993 33.0406C10.8736 32.2621 11.0008 31.4633 11.3618 30.7642C11.6174 31.8224 11.7754 32.9371 12.34 33.8871C12.8048 34.7149 13.5646 35.458 14.5266 35.6038C14.9448 35.6156 15.3514 35.4627 15.7511 35.3428C17.1325 34.8697 18.5418 34.4849 19.9708 34.1905C20.4564 34.0894 20.9583 34.0729 21.4509 34.1129C21.99 34.1834 22.4733 34.4515 22.9659 34.6679C24.1115 35.2158 25.3174 35.625 26.5048 36.0765C26.018 36.9843 25.6121 37.9341 25.2918 38.9148C23.6746 37.9648 21.8692 37.217 19.9708 37.2311C18.0887 37.177 16.3901 38.2705 14.5126 38.2658C13.8481 38.0353 13.388 37.4451 12.9419 36.9254C12.0473 35.7849 11.2456 34.4985 10.9993 33.0406ZM77.1711 33.5109C77.515 33.0029 78.1423 32.876 78.7116 32.9771C80.1058 33.1911 81.4349 33.8472 82.4759 34.809C81.3838 34.7854 80.1894 34.5973 79.2066 35.2017C78.4212 35.6485 77.9448 36.4715 77.6637 37.3134C77.1313 38.8045 76.0851 40.0512 74.7173 40.8243C73.6229 41.4216 72.5053 41.9813 71.4016 42.5645C72.8004 42.4234 74.2062 42.4869 75.6073 42.3858C76.7877 42.294 77.8287 41.6285 79.0044 41.5157C80.0175 41.3957 81.1561 41.257 82.0507 41.8684C82.8941 42.3834 83.3379 43.3382 84.1651 43.8743C85.3688 44.6927 87.1115 44.6856 88.2547 43.7473C88.9518 43.1947 89.3979 42.4022 89.7464 41.5933C89.9393 43.1406 89.7023 44.7867 88.8402 46.1036C88.027 47.4017 86.5631 48.3212 85.0272 48.307C83.2659 48.0836 81.7346 46.9713 79.9501 46.842C78.4328 46.7456 76.9852 47.4276 75.7792 48.3094C74.6964 49.076 73.8228 50.0966 72.8283 50.9737C72.331 51.4276 71.7385 51.8673 71.0391 51.8673C69.5729 51.9567 68.2461 51.2089 66.9728 50.5787C67.4723 48.1942 67.6396 45.7274 67.2818 43.3099C67.1633 42.2235 66.8868 41.17 66.6358 40.1118C67.9951 39.6932 69.3916 39.4181 70.7835 39.1288C71.9848 38.8654 73.2 38.5221 74.2294 37.819C75.1751 37.177 75.8629 36.2105 76.3392 35.1735C76.6134 34.6185 76.7807 33.9977 77.1711 33.5109Z" fill="#F9EEEE"/>
<path d="M19.9435 40.513C20.5266 39.8729 21.3724 39.2861 22.3035 39.4595C23.3936 39.6929 24.1772 40.5397 24.8848 41.3176C25.1152 41.522 24.9216 41.8221 24.8894 42.0665C24.3201 44.2091 24.2533 46.4383 24.3593 48.6364C24.4699 49.7966 24.7257 50.9389 24.9908 52.0747C23.3176 52.6636 21.6006 53.1348 19.8606 53.5038C18.9594 53.7038 18.0053 53.9594 17.3485 54.6328C16.6801 55.2951 16.4197 56.2175 16.2284 57.0998C16.1132 57.5799 15.9657 58.1578 15.454 58.3823C14.8295 58.6801 14.1288 58.4845 13.472 58.4156C12.5501 58.2645 11.5706 58.4156 10.6856 58.0466C11.2388 57.6577 11.8103 57.2865 12.4372 57.0198C13.0318 56.762 13.7163 56.9131 14.3178 56.6976C14.7949 56.5198 14.8778 55.993 15.023 55.5818C15.2374 54.8795 15.5808 54.2261 15.915 53.5704C14.0389 53.806 12.1353 53.7305 10.257 53.5482C11.0346 52.981 11.8776 52.5022 12.7691 52.1213C13.4858 51.788 14.2971 51.7791 15.0507 51.5657C16.3943 51.2212 17.5559 50.4544 18.7658 49.8232C19.3651 49.501 20.0357 49.332 20.6603 49.0631C19.5771 49.0098 18.4985 48.8809 17.4153 48.832C16.4473 48.7586 15.5577 49.2543 14.5921 49.2143C12.6887 49.3097 10.8185 48.7062 9.35814 47.5251C8.75892 47.0473 8.12974 46.5583 7.35767 46.3761C6.20994 46.1471 4.92393 46.3472 4.0205 47.1051C3.12628 47.8274 2.69761 48.9142 2.36113 49.961C2.01542 48.2319 2.16292 46.3338 3.09862 44.7914C4.12651 43.1623 6.1408 42.0599 8.13205 42.2888C10.1371 42.6733 11.7619 44.1691 13.85 44.2735C14.8732 44.2424 15.8689 43.8868 16.7308 43.3601C17.9569 42.5911 18.9963 41.5776 19.9435 40.513ZM66.5142 52.228C67.7219 52.7325 68.8834 53.346 70.1326 53.7638C71.6849 54.2407 73.3496 54.2585 74.9125 53.8149C75.7491 53.6016 76.5511 53.2726 77.4015 53.1059C77.8901 52.9904 78.3004 53.3237 78.6184 53.6393C79.508 54.5239 80.2363 55.5663 80.7364 56.7042C81.0959 57.4955 81.1167 58.3889 80.9369 59.229C80.5613 58.4 80.2962 57.491 79.6302 56.8242C79.1301 56.3331 78.5262 55.7997 77.768 55.8063C77.0743 55.7552 76.4336 56.0508 75.7906 56.2486C74.7442 56.5775 73.6933 56.9176 72.6101 57.0998C71.9003 57.2132 71.195 57.0087 70.5175 56.8265C68.7843 56.2931 66.9821 55.9952 65.2674 55.4018C65.7422 54.3683 66.18 53.3126 66.5142 52.228ZM23.5481 53.6149C24.1473 53.4526 24.7327 53.2348 25.3549 53.1637C25.6914 54.0572 26.0901 54.9262 26.5211 55.7796C24.5091 56.8554 22.3934 57.8688 20.7894 59.5024C20.1175 60.1263 19.6156 60.9004 19.3282 61.7561C19.0931 62.3828 18.9917 63.0563 18.6967 63.663C18.5584 63.9697 18.2358 64.1386 17.9131 64.2187C16.1293 64.6787 14.092 64.2498 12.7368 63.0185C12.2713 62.6095 12.0223 62.0317 11.8725 61.4538C12.9143 62.025 13.9168 62.7429 15.1268 62.9362C15.8112 63.0029 16.5695 63.0474 17.1641 62.654C17.8232 62.2317 18.1551 61.4983 18.3395 60.787C18.7198 59.5935 19.2406 58.4467 19.7615 57.3065C20.144 56.5487 20.5082 55.773 21.0106 55.0796C21.6006 54.2705 22.6077 53.9016 23.5481 53.6149ZM64.924 56.0286C66.1455 56.3686 67.36 56.8398 68.3672 57.6066C69.4043 58.3845 70.1234 59.5291 71.3218 60.1092C72.11 60.5226 73.0849 60.5759 73.9123 60.2359C74.3962 60.0425 74.9355 59.8091 75.4564 60.0225C76.1801 60.3114 76.6387 60.9648 77.0259 61.5894C77.4453 62.2784 77.9708 62.8962 78.4225 63.563C77.9017 63.3763 77.3739 63.1896 76.9083 62.8962C76.2699 62.4917 75.6615 62.0206 74.9378 61.7694C74.2556 61.7694 73.6633 62.2228 72.9789 62.2406C71.8035 62.2917 70.7272 61.7072 69.7915 61.0782C70.2109 62.0028 70.7387 62.9007 71.4739 63.6319C72.2483 64.4498 73.184 65.1277 73.8639 66.0323C71.921 65.6011 69.9805 64.7476 68.6852 63.2385C67.98 62.4562 67.3301 61.6183 66.4958 60.9582C65.4472 60.1292 64.2395 59.5202 63.0272 58.9557C63.6956 58.0044 64.3709 57.0509 64.924 56.0286ZM23.6333 59.7402C24.0482 58.1933 25.537 57.191 26.9682 56.5775C27.5766 57.6199 28.3349 58.5645 29.0747 59.5202C28.0399 60.2536 26.9405 60.8937 25.8366 61.5205C24.841 62.085 24.1473 63.0051 23.5135 63.9097C23.0249 64.6076 22.6008 65.3922 21.8564 65.8722C21.2733 66.2878 20.5658 66.4768 19.8744 66.6435C20.7363 66.0145 21.4923 65.2255 21.914 64.252C22.5593 62.7762 23.1747 61.2827 23.6333 59.7402ZM61.7021 60.287C62.5179 60.6137 63.3061 60.9982 64.1081 61.3538C65.1248 61.8237 66.0016 62.534 66.6571 63.4185C67.1388 64.0231 67.4476 64.7587 68.0699 65.2521C68.9664 66.0078 69.9782 66.759 70.3515 67.8992C70.741 68.8393 70.37 69.8906 70.7779 70.8263C71.1512 71.8109 72.1215 72.5688 73.2139 72.6399C74.2395 72.6843 75.2236 72.3354 76.1685 71.9931C75.4143 73.2614 74.2091 74.2231 72.776 74.7002C71.5822 75.1113 70.1902 75.0047 69.1185 74.329C68.4663 73.8934 68.0284 73.24 67.5629 72.6354C67.0558 71.9753 66.5926 71.2841 66.0233 70.6729C65.2121 69.8106 64.1197 69.2727 63.0272 68.8171C62.1515 68.4348 61.2296 68.0881 60.5221 67.4391C59.8975 66.8613 59.5564 66.0745 59.1116 65.3699C58.7359 64.7009 58.2934 64.0653 57.9523 63.3785C59.3034 62.4687 60.5592 61.4341 61.7021 60.2892M28.5769 61.5627C29.0839 61.2204 29.5679 60.8515 30.0749 60.5114C31.0959 61.4783 32.1814 62.3784 33.3568 63.1674C33.4582 63.2563 33.638 63.3319 33.6057 63.4963C33.5642 64.4898 33.8062 65.5633 33.2899 66.479C32.7898 67.3791 31.9371 68.0614 31.0083 68.5282C30.2201 68.9371 29.2798 69.0616 28.5815 69.635C27.1249 70.704 26.3851 72.4043 25.0184 73.5578C23.9836 74.4401 22.6216 75.0024 21.2295 74.9758C19.0447 75.058 16.9705 73.7889 15.8205 72.042C17.0719 72.4687 18.487 72.6954 19.7522 72.182C21.4992 71.5353 22.6331 70.0195 23.7532 68.6526C24.4354 67.8525 25.0691 67.0079 25.5001 66.0567C25.9795 65.0566 26.3206 63.9875 26.9244 63.0429C27.3277 62.4162 27.9569 61.9739 28.5769 61.5627ZM35.03 64.2031C36.0763 64.7521 37.1365 65.2788 38.2289 65.7367C37.6942 66.8679 36.9336 67.8859 36.1132 68.8393C35.514 69.515 34.9263 70.2351 34.6382 71.0952C34.3985 71.8153 34.1796 72.6199 34.4861 73.3533C34.7235 74.0623 35.3042 74.589 35.6154 75.2625C35.8113 75.7537 35.4056 76.1915 35.159 76.5871C34.7603 77.1761 34.3778 77.9251 34.6935 78.6274C35.0622 79.4453 35.6545 80.1676 35.8827 81.0478C35.2201 80.6735 34.6543 80.159 34.228 79.5431C33.7117 78.803 33.23 77.9984 33.094 77.105C32.9996 76.5493 33.3937 76.0848 33.7624 75.7114C34.0597 75.3936 34.3755 74.938 34.1542 74.5024C33.7901 73.8823 33.2899 73.3466 32.776 72.8377C31.248 73.2822 29.9044 74.149 28.4616 74.7846C28.858 74.0423 29.4388 73.4133 30.0242 72.8066C30.9069 71.8909 32.3358 71.5953 33.0433 70.4973C33.5112 69.6239 33.5365 68.6126 33.7993 67.6769C34.1058 66.4901 34.5921 65.3499 35.03 64.2031ZM53.4236 65.75C54.576 65.3077 55.6684 64.7521 56.747 64.1698C57.7749 66.0767 58.6714 68.0814 60.0749 69.7706C60.8655 70.7396 62.0408 71.3819 62.6654 72.4776C63.0434 73.1466 63.2001 73.909 63.2208 74.6646C62.9374 74.1668 62.6746 73.6489 62.2759 73.2266C61.7021 72.5954 60.9277 72.1776 60.1418 71.842C59.1531 71.4308 58.1897 70.9685 57.2194 70.524C56.5488 70.2217 55.8827 69.8484 55.4541 69.2483C54.6583 68.1506 53.9765 66.9786 53.4236 65.75ZM49.5356 66.7812C50.635 66.5901 51.702 66.2656 52.7783 65.9834C53.1932 66.9524 53.5135 68.017 53.2738 69.0682C53.0641 69.995 52.8336 70.9619 53.071 71.9042C53.1932 72.4154 53.7025 72.6821 54.1657 72.8621C55.2006 73.2444 56.2953 73.4467 57.3923 73.58C57.8371 73.6378 58.4156 73.7912 58.5055 74.2912C58.5562 75.0713 58.328 75.9559 58.8765 76.6249C59.7292 77.7495 61.3517 77.7184 62.4326 78.5252C61.3748 78.8208 60.257 78.7208 59.19 78.5474C58.2105 78.3852 57.2494 77.8184 56.8991 76.8849C56.6087 76.2804 56.7677 75.6181 56.8069 74.9891C55.9945 74.999 55.1835 74.9207 54.3893 74.7557C54.2072 76.2804 53.9399 77.7962 53.7993 79.3275C53.5101 78.9302 53.2739 78.4994 53.0964 78.0451C52.7783 77.2961 52.4027 76.5404 52.3981 75.7114C52.3335 74.0512 51.3056 72.6577 50.6142 71.1952C49.9851 69.7995 49.7431 68.2815 49.5356 66.7812Z" fill="#F9EEEE"/>
<path d="M41.7254 67.912C42.0602 67.8677 42.3807 68.0382 42.6988 68.1176C45.4492 68.9584 48.3742 69.1313 51.2251 68.7926C51.768 70.201 52.5357 71.5838 52.5716 73.123C52.5477 74.7346 51.7943 76.2458 51.8182 77.8644C51.7369 78.9529 52.0191 80.025 51.9282 81.1111C51.7225 82.5942 50.828 83.8742 49.8666 85C48.8191 86.2122 48.4388 87.9897 49.0654 89.4752C49.5748 90.6898 50.8209 91.3531 51.9378 91.9604C49.8283 92.1566 47.5132 91.6381 46.0065 90.0988C45.4802 89.5717 45.072 88.9433 44.8081 88.2536C44.5441 87.5639 44.4302 86.8282 44.4734 86.0931C44.6121 84.6683 45.3296 83.3837 45.6979 82.015C45.9945 81.0387 46.0376 80.0016 45.9012 78.9949C45.6405 77.3039 44.9063 75.7086 44.7939 73.9919C44.7604 73.443 44.8226 72.8941 44.8465 72.3475C43.9305 74.0806 43.0647 75.8511 42.5505 77.743C42.2613 78.9315 41.7104 80.0442 40.9362 81.0036C40.972 80.4547 41.0844 79.9082 41.0629 79.357C40.9769 77.9425 40.6787 76.548 40.178 75.2181C39.9269 74.5127 39.6184 73.8237 39.4605 73.0926C39.3027 72.1724 39.7642 71.3105 40.1469 70.5023C40.6109 69.6054 41.1347 68.7365 41.7254 67.912Z" fill="#F9EEEE"/>
</svg>
